<mxfile host="app.diagrams.net" modified="2024-02-13T14:39:02.152Z" agent="Mozilla/5.0 (Linux; Android 10; K) AppleWebKit/537.36 (KHTML, like Gecko) Chrome/121.0.0.0 Mobile Safari/537.36" version="23.1.1" etag="mctzy9MGkDmfYmRb4m-M" type="github">
  <diagram name="Page-1" id="7NnaSAnfhmj2qtJykZce">
    <mxGraphModel>
      <root>
        <mxCell id="0" />
        <mxCell id="1" parent="0" />
      </root>
    </mxGraphModel>
  </diagram>
</mxfile>
